<svg width="378" height="571" viewBox="0 0 378 571" fill="none" xmlns="http://www.w3.org/2000/svg">
<path d="M161.501 123.849H0.714844V286.808H161.501V123.849Z" fill="#FECA57"/>
<path d="M87.6259 194.464L34.3926 285.721H140.859L87.6259 194.464Z" fill="#29283F"/>
<path d="M81.651 194.464L28.9609 285.721H134.341L81.651 194.464Z" fill="#54A0FF"/>
<path d="M208.216 287.894C252.016 287.894 287.523 252.631 287.523 209.131C287.523 165.631 252.016 130.367 208.216 130.367C164.416 130.367 128.909 165.631 128.909 209.131C128.909 252.631 164.416 287.894 208.216 287.894Z" fill="#D46391"/>
<path d="M49.0595 123.849C73.3594 123.849 93.0584 104.636 93.0584 80.9362C93.0584 57.2363 73.3594 38.0237 49.0595 38.0237C24.7595 38.0237 5.06055 57.2363 5.06055 80.9362C5.06055 104.636 24.7595 123.849 49.0595 123.849Z" fill="#87CAB9"/>
<path d="M279.918 286.808H0.714844C0.714844 363.623 63.201 425.866 140.316 425.866C217.432 425.866 279.918 363.623 279.918 286.808Z" fill="#FFFAEE"/>
<path d="M221.253 0H194.093V503H221.253V0Z" fill="#87CAB9"/>
<path d="M377.121 450V570.161H301.118C301.101 570.291 301.101 570.421 301.101 570.55H255C255 570.421 255 570.291 255.016 570.161C256.134 503.666 310.383 450.097 377.121 450Z" fill="#FFFAEE"/>
<path d="M377.121 497.187V570.161H301.117C301.862 529.713 334.924 497.17 375.534 497.17C376.068 497.17 376.587 497.17 377.121 497.187Z" fill="#D46391"/>
</svg>
