<svg width="465" height="711" viewBox="0 0 465 711" fill="none" xmlns="http://www.w3.org/2000/svg">
<path d="M118.59 100.415L-0.000317194 100.415L-0.000312805 -5.18374e-06C59.3029 0.826128 108.385 43.8821 118.59 100.415Z" fill="#D46391"/>
<path d="M-0.000515772 244.584L-0.000511169 139.292L119.367 139.292C111.171 198.223 60.9873 243.741 -0.000515772 244.584Z" fill="#D46391"/>
<path d="M70.6416 100.415L-0.000605096 100.415L-0.000602722 46.1013C33.6764 46.5549 61.9429 69.3949 70.6416 100.415Z" fill="#FECA57"/>
<path d="M-0.000528863 194.983L-0.000526428 139.292L70.998 139.292C62.7691 170.993 34.1624 194.514 -0.000528863 194.983Z" fill="#FECA57"/>
<path d="M119.367 139.292L70.9981 139.292C72.5532 133.299 73.3794 127.014 73.3794 120.534C73.3794 113.569 72.4236 106.814 70.6418 100.416L118.59 100.416C119.886 107.511 120.55 114.816 120.55 122.284C120.55 128.051 120.145 133.736 119.367 139.292Z" fill="#FFFAEE"/>
<path d="M70.9977 139.292L-0.00087145 139.292L-0.000869751 100.416L70.6413 100.416C72.4232 106.814 73.3789 113.569 73.3789 120.534C73.3789 127.014 72.5528 133.299 70.9977 139.292Z" fill="#54A0FF"/>
<path d="M192.775 437.591L393.224 648.249V233L192.775 437.591Z" fill="#29283F"/>
<path d="M376.637 328.24H288.418V240.04C337.027 240.315 376.362 279.65 376.637 328.24Z" fill="#D46391"/>
<path d="M288.417 240.04V328.259H199.135C199.41 279.485 239.038 240.04 287.885 240.04C288.068 240.022 288.233 240.022 288.417 240.04Z" fill="#FECA57"/>
<path d="M377 328H193V443H377V328Z" fill="#87CAB9"/>
<path d="M192.775 238.391H49V648.966H192.775V238.391Z" fill="#29283F"/>
<path d="M307.518 443.678C307.518 464.958 301.762 484.882 291.718 501.984C287.337 501.159 282.81 500.737 278.191 500.737C243.09 500.737 213.727 525.335 206.395 558.218C201.941 558.768 197.396 559.061 192.795 559.098V442.982H307.518C307.518 443.22 307.518 443.44 307.518 443.678Z" fill="#D46391"/>
<path d="M307.498 442.982H192.775V328.259C255.975 328.625 307.15 379.782 307.498 442.982Z" fill="#29283F"/>
<path d="M114.723 709.966H0V595.243C63.1993 595.591 114.375 646.767 114.723 709.966Z" fill="#D46391"/>
<path d="M49.489 710.278H0V660.789C27.2556 660.935 49.3424 683.022 49.489 710.278Z" fill="#FECA57"/>
<path d="M192.775 442.982V559.098C192.537 559.116 192.317 559.116 192.078 559.116C128.329 559.116 76.6406 507.446 76.6406 443.678C76.6406 443.44 76.6406 443.22 76.659 442.982H192.775Z" fill="#FFFAEE"/>
<path d="M192.774 328.259V442.982H76.6582C77.0248 379.544 128.548 328.24 192.078 328.24C192.316 328.24 192.536 328.24 192.774 328.259Z" fill="#FECA57"/>
<path d="M188.792 655.29V680.951H177.795V710.278H133.805L188.792 655.29Z" fill="#FECA57"/>
<path d="M188.792 680.951H177.795V710.277H188.792V680.951Z" fill="#87CAB9"/>
<path d="M351.745 574.311C351.745 614.947 318.807 647.884 278.171 647.884C237.535 647.884 204.598 614.947 204.598 574.311H244.372C244.537 592.64 259.457 607.45 277.841 607.45C296.226 607.45 311.127 592.64 311.311 574.311H351.745Z" fill="#D46391"/>
<path d="M291.716 501.983C273.973 532.263 242.814 553.727 206.375 558.218C213.707 525.335 243.07 500.737 278.171 500.737C282.808 500.737 287.335 501.177 291.716 501.983Z" fill="#54A0FF"/>
<path d="M311.311 574.311V573.981C311.311 555.505 296.317 540.512 277.841 540.512C259.365 540.512 244.354 555.505 244.354 573.981C244.354 574.091 244.354 574.201 244.372 574.311H204.598C204.598 568.775 205.202 563.405 206.376 558.218C242.796 553.727 273.956 532.263 291.717 501.983C325.882 508.344 351.763 538.294 351.763 574.311H311.311Z" fill="#FECA57"/>
<path d="M424.88 294H329V296.493H424.88V294Z" fill="#29283F"/>
<path d="M424.88 302.322H329V304.814H424.88V302.322Z" fill="#29283F"/>
<path d="M424.88 310.643H329V313.136H424.88V310.643Z" fill="#29283F"/>
<path d="M424.88 318.983H329V321.476H424.88V318.983Z" fill="#29283F"/>
<path d="M424.88 327.304H329V329.797H424.88V327.304Z" fill="#29283F"/>
<path d="M424.88 335.644H329V338.137H424.88V335.644Z" fill="white"/>
<path d="M424.88 343.966H329V346.458H424.88V343.966Z" fill="white"/>
<path d="M424.88 352.287H329V354.78H424.88V352.287Z" fill="white"/>
<path d="M424.88 360.627H329V363.119H424.88V360.627Z" fill="white"/>
<path d="M192.775 442.982L49 283.536L192.775 281.904V442.982Z" fill="#54A0FF"/>
</svg>
