<svg width="535" height="520" viewBox="0 0 535 520" fill="none" xmlns="http://www.w3.org/2000/svg">
<path d="M272.394 255.568L21.9998 518.715V0L272.394 255.568Z" fill="#29283F"/>
<path d="M42.7201 118.971H152.92V8.79443C92.199 9.13788 43.0635 58.2733 42.7201 118.971Z" fill="#D46391"/>
<path d="M152.92 8.79427V118.994H264.448C264.105 58.0671 214.603 8.79427 153.584 8.79427C153.355 8.77138 153.149 8.77138 152.92 8.79427Z" fill="#FECA57"/>
<path d="M43 119H272V262H43V119Z" fill="#54A0FF"/>
<path d="M272.393 6.73389H451.992V519.611H272.393V6.73389Z" fill="#29283F"/>
<path d="M129.061 263.172C129.061 289.754 136.251 314.643 148.798 336.005C154.27 334.975 159.926 334.448 165.695 334.448C209.542 334.448 246.222 365.175 255.38 406.251C260.944 406.938 266.622 407.304 272.369 407.35V262.302H129.061C129.061 262.599 129.061 262.874 129.061 263.172Z" fill="#D46391"/>
<path d="M129.086 262.302H272.394V118.994C193.447 119.452 129.521 183.356 129.086 262.302Z" fill="#29283F"/>
<path d="M391.569 519.611H534.877V376.303C455.931 376.738 392.004 440.664 391.569 519.611Z" fill="#D46391"/>
<path d="M473.057 520H534.877V458.18C500.83 458.363 473.24 485.953 473.057 520Z" fill="#FECA57"/>
<path d="M272.393 262.302V407.35C272.691 407.373 272.965 407.373 273.263 407.373C352.896 407.373 417.464 342.828 417.464 263.172C417.464 262.874 417.464 262.599 417.441 262.302H272.393Z" fill="#FECA57"/>
<path d="M272.394 118.994V262.302H417.442C416.984 183.058 352.623 118.971 273.264 118.971C272.966 118.971 272.692 118.971 272.394 118.994Z" fill="#FECA57"/>
<path d="M299.045 451.311V483.366H312.783V520H367.734L299.045 451.311Z" fill="#FECA57"/>
<path d="M299.045 483.366H312.783V520H299.045V483.366Z" fill="#87CAB9"/>
<path d="M104.016 421.276C104.016 456.777 132.791 485.552 168.292 485.552C203.793 485.552 232.568 456.777 232.568 421.276H197.82C197.676 437.289 184.642 450.228 168.581 450.228C152.519 450.228 139.501 437.289 139.341 421.276H104.016Z" fill="#D46391"/>
<path d="M156.46 358.089C171.96 384.542 199.182 403.294 231.016 407.217C224.611 378.489 198.958 357 168.293 357C164.242 357 160.287 357.384 156.46 358.089Z" fill="#87CAB9"/>
<path d="M139.341 421.276V420.988C139.341 404.847 152.439 391.748 168.581 391.748C184.722 391.748 197.836 404.847 197.836 420.988C197.836 421.084 197.836 421.18 197.82 421.276H232.568C232.568 416.44 232.04 411.748 231.015 407.217C199.197 403.294 171.975 384.542 156.459 358.089C126.61 363.645 104 389.811 104 421.276H139.341Z" fill="#FECA57"/>
<path d="M7.62939e-06 67.1799H86.3418V70.2938H7.62939e-06V67.1799Z" fill="#29283F"/>
<path d="M7.62939e-06 77.575H86.3418V80.6888H7.62939e-06V77.575Z" fill="#29283F"/>
<path d="M7.62939e-06 87.97H86.3418V91.0839H7.62939e-06V87.97Z" fill="#29283F"/>
<path d="M7.62939e-06 98.3877H86.3418V101.502H7.62939e-06V98.3877Z" fill="#29283F"/>
<path d="M7.62939e-06 108.782H86.3418V111.896H7.62939e-06V108.782Z" fill="#29283F"/>
<path d="M7.62939e-06 119.2H86.3418V122.314H7.62939e-06V119.2Z" fill="white"/>
<path d="M7.62939e-06 129.595H86.3418V132.709H7.62939e-06V129.595Z" fill="white"/>
<path d="M7.62939e-06 139.99H86.3418V143.104H7.62939e-06V139.99Z" fill="white"/>
<path d="M7.62939e-06 150.408H86.3418V153.522H7.62939e-06V150.408Z" fill="white"/>
<path d="M272.393 262.302L451.992 63.1274L272.393 61.0896V262.302Z" fill="#87CAB9"/>
</svg>
