<svg width="290" height="385" viewBox="0 0 290 385" fill="none" xmlns="http://www.w3.org/2000/svg">
<g style="mix-blend-mode:luminosity" opacity="0.1">
<path d="M251.636 98.7104C251.636 117.102 246.677 134.322 238.022 149.102C234.247 148.389 230.346 148.024 226.365 148.024C196.119 148.024 170.816 169.284 164.499 197.703C160.661 198.178 156.744 198.432 152.779 198.463L152.779 98.1084L251.636 98.1084C251.636 98.3143 251.636 98.5044 251.636 98.7104Z" fill="#D46391"/>
<path d="M148 385L-1.29386e-05 385L0 237C81.5312 237.449 147.551 303.469 148 385Z" fill="#D46391"/>
<path d="M64 385L-5.59506e-06 385L0 321C35.2474 321.19 63.8104 349.753 64 385Z" fill="#FECA57"/>
<path d="M152.779 98.1084L152.779 198.447C152.573 198.463 152.383 198.463 152.177 198.463C97.0898 198.463 52.4243 153.814 52.4243 98.7103C52.4243 98.5044 52.4243 98.3143 52.4402 98.1084L152.779 98.1084Z" fill="#FFFAEE"/>
<path d="M152.779 0.0156843L152.779 98.1081L52.4244 98.1081C52.7413 43.8666 97.2713 3.92063e-06 152.177 8.72068e-06C152.383 8.73868e-06 152.573 1.21036e-05 152.779 0.0156843Z" fill="#FECA57"/>
<path d="M243 314L243 347.133L228.8 347.133L228.8 385L172 385L243 314Z" fill="#FECA57"/>
<path d="M243 347L229 347L229 385L243 385L243 347Z" fill="#87CAB9"/>
<path d="M289.368 211.192C289.368 246.061 261.105 274.325 226.235 274.325C191.366 274.325 163.103 246.061 163.103 211.192L197.233 211.192C197.374 226.92 210.177 239.628 225.952 239.628C241.728 239.628 254.515 226.92 254.672 211.192L289.368 211.192Z" fill="#D46391"/>
<path d="M237.858 149.128C222.633 175.111 195.895 193.529 164.627 197.382C170.918 169.166 196.115 148.059 226.234 148.059C230.214 148.059 234.099 148.436 237.858 149.128Z" fill="#54A0FF"/>
<path d="M254.672 211.192L254.672 210.909C254.672 195.055 241.806 182.189 225.952 182.189C210.098 182.189 197.217 195.055 197.217 210.909C197.217 211.003 197.217 211.097 197.233 211.192L163.103 211.192C163.103 206.442 163.622 201.834 164.628 197.382C195.88 193.529 222.618 175.111 237.859 149.128C267.176 154.586 289.384 180.286 289.384 211.192L254.672 211.192Z" fill="#FECA57"/>
<path d="M85.0461 33.4556L18.6898 33.4556L18.6898 35.6038L85.0461 35.6038L85.0461 33.4556Z" fill="#29283F"/>
<path d="M85.0461 40.6277L18.6898 40.6277L18.6898 42.7759L85.0461 42.7759L85.0461 40.6277Z" fill="#29283F"/>
<path d="M85.0461 47.7983L18.6898 47.7983L18.6898 49.9466L85.0461 49.9466L85.0461 47.7983Z" fill="#29283F"/>
<path d="M85.0461 54.9858L18.6898 54.9858L18.6898 57.1341L85.0461 57.1341L85.0461 54.9858Z" fill="#29283F"/>
<path d="M85.0461 62.1563L18.6898 62.1562L18.6898 64.3045L85.0461 64.3045L85.0461 62.1563Z" fill="#29283F"/>
<path d="M85.0465 69.3438L18.6903 69.3438L18.6903 71.492L85.0465 71.492L85.0465 69.3438Z" fill="white"/>
<path d="M85.0465 76.5151L18.6903 76.5151L18.6903 78.6634L85.0465 78.6634L85.0465 76.5151Z" fill="white"/>
<path d="M85.0465 83.6865L18.6903 83.6865L18.6903 85.8347L85.0465 85.8347L85.0465 83.6865Z" fill="white"/>
<path d="M85.0465 90.8735L18.6903 90.8735L18.6903 93.0217L85.0465 93.0218L85.0465 90.8735Z" fill="white"/>
<path d="M152.779 98.1081L62.9092 0.993584L152.779 7.85669e-06L152.779 98.1081Z" fill="#54A0FF"/>
</g>
</svg>
