<svg width="32" height="28" viewBox="0 0 32 28" fill="none" xmlns="http://www.w3.org/2000/svg">
<path d="M7.4742 20.0118H15.3618L17.4251 26.8254C17.4551 26.9379 17.52 27.0244 17.6242 27.0758C17.718 27.1219 17.8309 27.1328 17.9454 27.1328H22.1191C22.2424 27.1328 22.3724 27.1005 22.4454 26.9852C22.5125 26.8792 22.4982 26.7513 22.4711 26.6481L22.4713 26.6481L22.4687 26.6399L14.4104 1.8313C14.3863 1.72325 14.3416 1.62612 14.2499 1.56389C14.162 1.50419 14.0577 1.49642 13.9692 1.49642H8.66758C8.5768 1.49642 8.48043 1.5215 8.4062 1.59264C8.33143 1.66428 8.29978 1.76277 8.29922 1.86768C8.25958 2.99955 8.18274 3.35191 8.05923 3.74767C8.05922 3.74773 8.0592 3.74779 8.05918 3.74786L0.870216 26.6051L0.866773 26.616L0.865035 26.6274C0.854636 26.6952 0.847778 26.7605 0.85067 26.8192C0.85358 26.8784 0.866929 26.9446 0.909313 27.0026C0.953308 27.0627 1.01447 27.0949 1.07578 27.1119C1.13436 27.1282 1.20079 27.1328 1.26965 27.1328H4.98761C5.10705 27.1328 5.22948 27.1269 5.32552 27.0694C5.4343 27.0043 5.47688 26.8963 5.49981 26.7861L7.4742 20.0118ZM26.4648 1.50788C25.9976 1.91299 25.7057 2.49064 25.6699 3.20298H25.6566V3.35298C25.6566 4.14857 25.93 4.78015 26.4156 5.21115C26.8987 5.63999 27.5756 5.85596 28.3587 5.85596C29.1608 5.85596 29.8591 5.64008 30.3593 5.21232C30.8626 4.78197 31.15 4.15008 31.15 3.35298C31.15 2.61281 30.8722 1.98324 30.3838 1.53989C29.8966 1.09763 29.2106 0.85 28.4081 0.85C27.6472 0.85 26.9621 1.07674 26.4648 1.50788ZM25.9529 8.5778V8.74203L25.9718 8.7403V26.7035C25.9718 26.8149 25.995 26.938 26.0891 27.0297C26.1819 27.12 26.3131 27.15 26.4579 27.15H30.3753C30.5046 27.15 30.6361 27.1349 30.725 27.0469C30.8159 26.957 30.8215 26.8307 30.8215 26.7397V8.59504C30.8215 8.48268 30.8003 8.36067 30.7038 8.27483C30.6125 8.19358 30.4874 8.17613 30.3658 8.17613H26.3896C26.2752 8.17613 26.157 8.19475 26.0692 8.27237C25.9766 8.35429 25.9529 8.46961 25.9529 8.5778ZM8.65098 15.978C8.71111 15.7714 8.77222 15.5616 8.83408 15.3493C9.75957 12.1722 10.8539 8.41551 11.4007 5.90276C11.8942 7.90663 12.7895 11.0004 13.5084 13.4848C13.784 14.4374 14.0338 15.3004 14.225 15.978H8.65098Z" fill="#D46391" stroke="#D46391" stroke-width="0.3"/>
</svg>
