<svg width="33" height="26" viewBox="0 0 33 26" fill="none" xmlns="http://www.w3.org/2000/svg">
<path d="M26.6736 25.993C25.5422 26.0404 24.4134 25.8477 23.3559 25.4267C22.2984 25.0057 21.3344 24.3652 20.5227 23.5442C18.8232 21.5291 17.9514 18.9012 18.0948 16.225C18.0422 13.6239 18.9344 11.0979 20.5934 9.15064C21.4606 8.19706 22.512 7.44496 23.6785 6.94369C24.8449 6.44241 26.1001 6.20329 27.3617 6.24201H27.9713V0.800224C27.9713 0.375765 28.3035 0.0302116 28.7117 0.0274907H32.1573C32.3486 0.0200631 32.5355 0.0880978 32.6806 0.217955C32.7514 0.287676 32.8071 0.372246 32.8441 0.466062C32.8811 0.559878 32.8985 0.660797 32.8951 0.762132V21.6559C32.882 22.3769 32.9187 23.0979 32.9998 23.8135V23.8816C33.0038 24.0546 32.9522 24.224 32.8533 24.3632C32.7678 24.4723 32.6596 24.5598 32.5367 24.6189C30.721 25.5203 28.7353 25.9905 26.7233 25.9957L26.6736 25.993ZM24.2771 12.0729L24.264 12.0892C23.4354 13.2234 23.0184 14.6254 23.0867 16.0481C22.9792 17.5305 23.3909 19.0032 24.2457 20.1947C24.9442 20.9947 25.9515 21.43 26.9902 21.3756C27.32 21.3807 27.6492 21.346 27.9713 21.2722V10.7995C27.7271 10.7451 27.478 10.7187 27.2283 10.7206C26.67 10.705 26.1155 10.819 25.605 11.0544C25.0945 11.2897 24.6409 11.6404 24.2771 12.081V12.0729ZM17.4198 25.6773H13.6236C13.4284 25.6906 13.2342 25.64 13.0681 25.5327C12.902 25.4253 12.7724 25.2666 12.6974 25.0788L12.148 23.8816L12.1349 23.8516L11.5986 22.7388L11.4311 22.3769C10.5965 20.5866 9.73577 18.7418 8.8724 16.8426C7.67195 19.6086 6.43608 22.3579 5.16512 25.0896V25.1168L5.15204 25.1413C5.06447 25.2939 4.94231 25.4219 4.79622 25.5141C4.6477 25.6063 4.47731 25.6534 4.30436 25.6501H0.717434C0.56742 25.6578 0.419092 25.6144 0.294927 25.5265C0.170762 25.4386 0.0775274 25.311 0.0293501 25.1631C-0.0021551 25.0504 -0.00839531 24.9318 0.0111078 24.8162C0.0306108 24.7006 0.0753374 24.5912 0.14185 24.4965L5.97355 12.9028L0.332839 1.16482C0.256957 1.05063 0.213735 0.916423 0.208178 0.777737C0.202622 0.639051 0.234959 0.501568 0.301444 0.381209C0.365376 0.272035 0.455315 0.181865 0.562565 0.119423C0.669814 0.0569808 0.790743 0.0243802 0.913655 0.0247717H4.66541C4.84766 0.0146424 5.02898 0.0580118 5.18867 0.149931C5.351 0.252975 5.47608 0.408879 5.54448 0.593435C6.94681 3.65444 8.12937 6.30731 9.1628 8.66088C10.4474 5.6679 11.8131 2.62594 12.7288 0.609763L12.7419 0.579832L12.7576 0.552624V0.522693C12.8232 0.406309 12.9052 0.300831 13.0009 0.209791C13.1628 0.0692822 13.3683 -0.00518539 13.5791 0.00028092H17.0928C17.2271 -0.00344928 17.3596 0.0333655 17.4743 0.106275C17.589 0.179184 17.6809 0.285069 17.739 0.411137C17.7852 0.526619 17.8039 0.652012 17.7934 0.776618C17.7829 0.901224 17.7436 1.02135 17.6788 1.12673L12.0355 12.5191L18.0058 24.491C18.0686 24.595 18.1081 24.7124 18.1212 24.8344C18.1343 24.9564 18.1208 25.0799 18.0817 25.1957C18.0324 25.3366 17.9422 25.4581 17.8237 25.5434C17.7051 25.6287 17.564 25.6736 17.4198 25.6719V25.6773Z" fill="#D46391"/>
</svg>
