<svg width="31" height="26" viewBox="0 0 31 26" fill="none" xmlns="http://www.w3.org/2000/svg">
<path d="M6.85887 7.56378e-05C5.50097 0.00953045 4.14784 0.905374 4.14305 2.67815C4.14305 4.19092 5.38621 5.39641 6.90669 5.39641C7.33462 5.38459 9.65597 4.99458 9.61533 2.6356C9.58425 0.867554 8.21917 -0.00937917 6.85887 7.56378e-05ZM22.8812 7.57101C20.8492 7.73884 18.633 9.12869 17.0862 11.9793L17.9923 7.9043H10.9828L9.99784 11.4853H13.285L11.2673 19.4864C9.58664 23.1833 5.42207 23.9302 5.42207 21.8218C5.45315 20.6872 5.34557 21.3727 8.76903 7.9043H0.984961L0 11.49H3.24177C0.989743 20.5666 0.90607 20.5359 0.898898 21.9754C0.898898 26.8801 7.32506 27.6247 10.5334 22.408L9.70857 25.6817H14.3035L16.9332 15.2767C18.4298 9.26342 24.471 10.5351 23.0342 15.2058C22.1067 18.4913 18.8936 25.9464 25.5779 25.9464C28.0021 25.9464 29.9314 24.4029 31 20.7061L29.1783 20.0325C27.7224 24.0106 25.9389 23.2944 25.9389 21.7296C25.97 20.9141 26.0106 20.9543 27.457 15.8062C29.1185 10.4051 26.2617 7.2921 22.8812 7.57101Z" fill="#D46391"/>
</svg>
