<svg width="20" height="28" viewBox="0 0 20 28" fill="none" xmlns="http://www.w3.org/2000/svg">
<path d="M5.84409 10.929H9.00663V17.0711H5.84409L5.84362 17.0711L5.82452 17.0711C5.82429 17.0711 5.82406 17.0711 5.82383 17.0711C4.14541 17.0602 2.78673 15.6902 2.78673 14.0001C2.78673 12.3032 4.15632 10.929 5.84409 10.929ZM5.84409 2.79341H6.04409V2.79336H9.00663V8.93551H5.84409C4.15637 8.93551 2.78673 7.56137 2.78673 5.86444C2.78673 4.16761 4.15632 2.79341 5.84409 2.79341ZM5.84409 0.8C3.05753 0.8 0.8 3.06824 0.8 5.86444C0.8 7.5309 1.60185 9.00951 2.8388 9.93227C1.60181 10.8551 0.8 12.3336 0.8 14.0001C0.8 15.6665 1.60167 17.145 2.8387 18.0678C1.60176 18.9906 0.8 20.4691 0.8 22.1355C0.8 24.9402 3.09205 27.2 5.87019 27.2C8.6774 27.2 10.9934 24.9165 10.9934 22.0827V18.0285C11.8415 18.6784 12.9013 19.0646 14.0507 19.0646H14.1559C16.9425 19.0646 19.2 16.7963 19.2 14.0001C19.2 12.3336 18.3982 10.8551 17.1612 9.93227C18.3982 9.00951 19.2 7.53089 19.2 5.86444C19.2 3.06824 16.9425 0.8 14.1559 0.8H5.84409ZM14.0507 17.0712C12.363 17.0712 10.9934 15.697 10.9934 14.0001C10.9934 12.3032 12.363 10.929 14.0507 10.929H14.1559C15.8437 10.929 17.2133 12.3032 17.2133 14.0001C17.2133 15.697 15.8437 17.0712 14.1559 17.0712H14.0507ZM5.82382 19.0645C5.82405 19.0645 5.82428 19.0645 5.82451 19.0645L5.84362 19.0646H5.84409H9.00663V22.0827C9.00663 23.8006 7.59521 25.2066 5.87019 25.2066C4.17429 25.2066 2.78673 23.8242 2.78673 22.1355C2.78673 20.4454 4.14541 19.0754 5.82382 19.0645ZM14.1559 8.93551H10.9934V2.79341H14.1559C15.8437 2.79341 17.2133 4.16756 17.2133 5.86444C17.2133 7.56137 15.8437 8.93551 14.1559 8.93551Z" fill="#D46391" stroke="#D46391" stroke-width="0.4"/>
</svg>
