<svg width="32" height="28" viewBox="0 0 32 28" fill="none" xmlns="http://www.w3.org/2000/svg">
<path d="M24.1692 23.3973C22.4727 23.401 20.8118 22.9214 19.3896 22.0169C19.2327 21.8984 19.1205 21.9803 19.1205 22.2069V25.6196C19.1205 25.8113 19.1579 25.9281 19.3058 26.0013L24.1692 23.3973ZM24.1692 23.3973C26.0529 23.3973 26.8334 22.6339 26.8334 21.5916C26.8334 20.7481 26.2863 20.0213 23.9001 18.796L24.1692 23.3973ZM7.65644 0.800494C10.9861 0.800541 13.3312 1.69311 14.8437 3.18905C16.3562 4.68491 17.0073 6.75564 17.0073 9.0529C17.0073 12.0632 15.8886 14.2349 14.069 15.6486C12.257 17.0565 9.77179 17.6957 7.06095 17.6957C6.60264 17.6957 6.29573 17.6843 6.02515 17.6729C6.00066 17.6719 5.9765 17.6708 5.95258 17.6698C5.77247 17.6621 5.60597 17.6551 5.41468 17.652V26.383C5.41468 26.4973 5.39342 26.6298 5.29638 26.7296C5.19812 26.8307 5.06475 26.8549 4.94559 26.8549H1.2691C1.15495 26.8549 1.02152 26.835 0.921865 26.7375C0.821062 26.6389 0.8 26.5056 0.8 26.3917V1.39091C0.8 1.27603 0.862097 1.19081 0.917548 1.13807C0.974104 1.08428 1.04394 1.04399 1.10977 1.01439C1.23887 0.956335 1.39684 0.919867 1.52479 0.919029C3.56751 0.834572 5.61191 0.795051 7.65644 0.800494ZM7.65644 0.800494C7.65653 0.800494 7.65661 0.800495 7.6567 0.800495L7.65617 1.00049V0.800494C7.65626 0.800494 7.65635 0.800494 7.65644 0.800494ZM25.6715 11.1684H26.0135C27.3912 11.2228 28.7596 11.5916 29.7028 12.1335L29.7186 12.1426L29.7358 12.1487C29.8872 12.2022 30.0516 12.2065 30.1834 12.1105C30.3126 12.0165 30.3553 11.8661 30.3553 11.7335V8.54744C30.3553 8.36346 30.3096 8.08507 30.0278 7.91309L30.0154 7.90552L30.002 7.89983C29.1795 7.54939 27.7123 7.23893 25.6537 7.23893C23.5393 7.23893 21.8531 7.87322 20.6928 8.90776C19.5318 9.94299 18.9098 11.3686 18.9098 12.9222C18.9098 14.3059 19.2749 15.4266 20.0839 16.4024C20.8863 17.3704 22.114 18.1817 23.812 18.9756C24.999 19.5853 25.7079 20.0611 26.1193 20.4775C26.5208 20.8838 26.6334 21.2271 26.6334 21.5916C26.6334 22.0574 26.4622 22.446 26.0881 22.725C25.7055 23.0104 25.0884 23.1973 24.1692 23.1973L24.1687 23.1973C22.5126 23.201 20.8914 22.7333 19.5029 21.852C19.3983 21.7756 19.2319 21.7114 19.0801 21.8196C18.9496 21.9127 18.9205 22.0781 18.9205 22.2069V25.6196C18.9205 25.7241 18.9299 25.8353 18.9751 25.9365C19.0235 26.0449 19.1045 26.1236 19.2122 26.1781C20.2734 26.7707 22.0799 27.2 24.1781 27.2C26.1681 27.2 27.9216 26.6929 29.1822 25.694C30.4484 24.6907 31.2 23.2042 31.2 21.2901C31.2 20.0063 30.8955 18.916 30.102 17.9209C29.3149 16.9337 28.0587 16.0557 26.1872 15.1653C24.9318 14.5308 24.2214 14.0816 23.8242 13.6973C23.6286 13.508 23.5146 13.3396 23.4479 13.1781C23.3814 13.0169 23.3569 12.8506 23.3569 12.6573C23.3569 12.3319 23.4906 11.9672 23.8357 11.6804C24.1826 11.392 24.7609 11.1684 25.6715 11.1684ZM7.14471 13.5745C6.30824 13.5745 5.87538 13.5745 5.41468 13.5497V4.94753C5.88633 4.91647 6.67226 4.88857 7.48865 4.88857C9.04742 4.88857 10.2563 5.25649 11.0729 5.95775C11.8846 6.6547 12.3374 7.70559 12.3374 9.13656C12.3374 10.9205 11.7061 12.0135 10.767 12.6701C9.81469 13.3358 8.51517 13.5745 7.14471 13.5745Z" fill="#D46391" stroke="#D46391" stroke-width="0.4"/>
</svg>
