<svg width="35" height="28" viewBox="0 0 35 28" fill="none" xmlns="http://www.w3.org/2000/svg">
<path d="M7.29308 0.936729C7.23089 1.01655 7.20693 1.11453 7.20339 1.21011L7.20124 1.21895L7.17997 1.30672L7.09915 1.64027L6.80991 2.83395L5.92521 6.48462C5.27883 9.15169 4.61984 11.8702 4.56533 12.0927L0.818176 26.2462L0.814853 26.2588L0.81318 26.2716C0.804142 26.3412 0.798169 26.4089 0.800516 26.4704C0.802828 26.5311 0.813626 26.6028 0.851843 26.6692C0.941085 26.8242 1.10801 26.8435 1.22369 26.8435H4.41939C4.5427 26.8435 4.67287 26.8233 4.77664 26.7358C4.87828 26.6501 4.9179 26.5304 4.93816 26.4217L6.62675 19.6146H13.2833L15.0377 26.4612C15.0646 26.5797 15.1266 26.6821 15.2311 26.7499C15.3304 26.8142 15.4461 26.833 15.5554 26.833H19.1428C19.2731 26.833 19.4151 26.7889 19.489 26.6459C19.5483 26.5311 19.5356 26.3973 19.5175 26.2969L19.5159 26.2879L19.5135 26.2791L12.5874 1.19114C12.5679 1.08729 12.5321 0.976579 12.4443 0.897725C12.3491 0.812182 12.2334 0.8 12.1459 0.8H7.58081C7.4723 0.8 7.36635 0.842685 7.29308 0.936729ZM25.5346 21.7156C24.8414 20.8814 24.4876 19.6911 24.4384 18.2339H29.9034C31.8048 18.2339 33.1147 18.1611 33.5704 18.0749L33.5736 18.0742C33.677 18.0529 33.7842 18.017 33.8697 17.9317C33.9541 17.8475 33.9927 17.7397 34.017 17.6313C34.1237 17.1803 34.2 16.242 34.2 15.1203C34.2 13.364 33.7823 11.3896 32.7501 9.84766C31.7117 8.29629 30.0555 7.19164 27.6168 7.19164C25.2051 7.19164 23.3146 8.35505 22.0344 10.214C20.7582 12.0673 20.0885 14.6089 20.0885 17.3872C20.0885 19.9504 20.6306 22.3998 21.9194 24.2141C23.2153 26.0384 25.2523 27.2 28.1864 27.2C29.9985 27.2 31.4627 26.9249 32.6495 26.294L32.665 26.2857L32.6789 26.2748C32.7687 26.2045 32.848 26.1232 32.9019 26.0143C32.9558 25.9055 32.9759 25.7861 32.9759 25.6525V22.7302C32.9759 22.6071 32.9412 22.4548 32.8029 22.3751C32.6708 22.299 32.528 22.3389 32.4334 22.3862C31.3202 22.9166 30.2469 23.0947 28.9763 23.0947C27.3684 23.0947 26.2555 22.5831 25.5346 21.7156ZM7.8053 14.7142C8.56496 11.6732 9.44855 8.13618 9.93776 5.63631C10.3505 7.53416 11.0213 10.2207 11.5916 12.5048C11.8717 13.6265 12.1276 14.6511 12.3168 15.4377H7.62464C7.68388 15.2003 7.74419 14.9588 7.8053 14.7142ZM30.0893 14.5381C30.0867 14.559 30.0839 14.5814 30.0813 14.6051C30.0202 14.6088 29.9399 14.6115 29.8348 14.6134C29.5862 14.618 29.2123 14.618 28.6548 14.618H24.4935C24.613 13.6785 24.8799 12.7923 25.331 12.1307C25.8113 11.4261 26.499 10.9753 27.465 10.9753C28.511 10.9753 29.1611 11.5074 29.5599 12.2002C29.9646 12.9031 30.1049 13.7672 30.1049 14.381C30.1049 14.4168 30.0995 14.4591 30.0911 14.5246L30.0893 14.5381Z" fill="#D46391" stroke="#D46391" stroke-width="0.4"/>
</svg>
