<svg width="20" height="20" viewBox="0 0 20 20" fill="none" xmlns="http://www.w3.org/2000/svg">
<path d="M10 9.375C8.625 9.375 7.5 8.9375 6.625 8.0625C5.75 7.1875 5.3125 6.0625 5.3125 4.6875C5.3125 3.3125 5.75 2.1875 6.625 1.3125C7.5 0.4375 8.625 0 10 0C11.375 0 12.5 0.4375 13.375 1.3125C14.25 2.1875 14.6875 3.3125 14.6875 4.6875C14.6875 6.0625 14.25 7.1875 13.375 8.0625C12.5 8.9375 11.375 9.375 10 9.375ZM0 19.4062V16.4688C0 15.6771 0.197917 15 0.59375 14.4375C0.989583 13.875 1.5 13.4479 2.125 13.1562C3.52083 12.5312 4.85938 12.0625 6.14063 11.75C7.42188 11.4375 8.70833 11.2812 10 11.2812C11.2917 11.2812 12.5729 11.4427 13.8438 11.7656C15.1146 12.0885 16.4479 12.5521 17.8438 13.1562C18.4896 13.4479 19.0104 13.875 19.4062 14.4375C19.8021 15 20 15.6771 20 16.4688V19.4062H0ZM1.875 17.5312H18.125V16.4688C18.125 16.1354 18.026 15.8177 17.8281 15.5156C17.6302 15.2135 17.3854 14.9896 17.0938 14.8438C15.7604 14.1979 14.5417 13.7552 13.4375 13.5156C12.3333 13.276 11.1875 13.1562 10 13.1562C8.8125 13.1562 7.65625 13.276 6.53125 13.5156C5.40625 13.7552 4.1875 14.1979 2.875 14.8438C2.58333 14.9896 2.34375 15.2135 2.15625 15.5156C1.96875 15.8177 1.875 16.1354 1.875 16.4688V17.5312ZM10 7.5C10.8125 7.5 11.4844 7.23437 12.0156 6.70312C12.5469 6.17187 12.8125 5.5 12.8125 4.6875C12.8125 3.875 12.5469 3.20313 12.0156 2.67188C11.4844 2.14063 10.8125 1.875 10 1.875C9.1875 1.875 8.51562 2.14063 7.98438 2.67188C7.45312 3.20313 7.1875 3.875 7.1875 4.6875C7.1875 5.5 7.45312 6.17187 7.98438 6.70312C8.51562 7.23437 9.1875 7.5 10 7.5Z" fill="#D46391"/>
</svg>
