<svg width="16" height="21" viewBox="0 0 16 21" fill="none" xmlns="http://www.w3.org/2000/svg">
<path d="M6.85 16.4062L12.575 10.395L11.6 9.37125L6.85 14.3587L4.275 11.655L3.3 12.6787L6.85 16.4062ZM1.5 21C1.1 21 0.75 20.8425 0.45 20.5275C0.15 20.2125 0 19.845 0 19.425V1.575C0 1.155 0.15 0.7875 0.45 0.4725C0.75 0.1575 1.1 0 1.5 0H10.525L16 5.74875V19.425C16 19.845 15.85 20.2125 15.55 20.5275C15.25 20.8425 14.9 21 14.5 21H1.5ZM9.775 6.4575V1.575H1.5V19.425H14.5V6.4575H9.775ZM1.5 1.575V6.4575V1.575V19.425V1.575Z" fill="#D46391"/>
</svg>
