<svg width="62" height="30" viewBox="0 0 62 30" fill="none" xmlns="http://www.w3.org/2000/svg">
<path d="M61.4142 16.4142C62.1953 15.6332 62.1953 14.3668 61.4142 13.5858L48.6863 0.857863C47.9052 0.0768145 46.6389 0.0768144 45.8579 0.857863C45.0768 1.63891 45.0768 2.90524 45.8579 3.68629L57.1716 15L45.8579 26.3137C45.0768 27.0948 45.0768 28.3611 45.8579 29.1421C46.6389 29.9232 47.9052 29.9232 48.6863 29.1421L61.4142 16.4142ZM2 13C0.895432 13 9.65645e-08 13.8954 0 15C-9.65645e-08 16.1046 0.895431 17 2 17L2 13ZM60 13L2 13L2 17L60 17L60 13Z" fill="#FFFAEE"/>
</svg>
